<?xml version="1.0" encoding="utf-8"?>
<!-- Generator: Adobe Illustrator 25.0.1, SVG Export Plug-In . SVG Version: 6.00 Build 0)  -->
<svg version="1.1" id="Layer_1" xmlns="http://www.w3.org/2000/svg" xmlns:xlink="http://www.w3.org/1999/xlink" x="0px" y="0px"
	 viewBox="0 0 1920 518" style="enable-background:new 0 0 1920 518;" xml:space="preserve">
<style type="text/css">
	.st0{clip-path:url(#SVGID_2_);}
	.st1{fill:#292929;}
	.st2{fill:#006DFF;}
	.st3{fill:#FFFFFF;}
	.st4{font-family:'OCRAExtended';}
	.st5{font-size:150px;}
</style>
<g>
	<defs>
		<rect id="SVGID_1_" width="1920" height="518"/>
	</defs>
	<clipPath id="SVGID_2_">
		<use xlink:href="#SVGID_1_"  style="overflow:visible;"/>
	</clipPath>
	<g id="Rutvik" class="st0">
		<rect class="st1" width="1920" height="518"/>
		<g id="Group_161" transform="translate(-1562 6)">
			<image style="overflow:visible;" width="81" height="80" xlink:href="7BAA8F18.png"  transform="matrix(1 0 0 1 1613 24)">
			</image>
			<g>
				<g>
					<rect id="Rectangle_11_12_" x="1638" y="33" class="st2" width="13" height="44"/>
					<rect id="Rectangle_12_12_" x="1622.5" y="48.3" class="st2" width="43.6" height="13.1"/>
				</g>
			</g>
		</g>
		<g id="Group_164" transform="translate(218 287.029)">
			<image style="overflow:visible;" width="133" height="134" xlink:href="7BAA8F19.png"  transform="matrix(1 0 0 1 1594 4.971)">
			</image>
			<g>
				<g>
					<path id="Rectangle_11-2_12_" class="st3" d="M1662,33h17c3.3,0,6,2.7,6,6v85c0,3.3-2.7,6-6,6h-17c-3.3,0-6-2.7-6-6V39
						C1656,35.7,1658.7,33,1662,33z"/>
					<path id="Rectangle_12-2_12_" class="st3" d="M1718.2,72.5v16.7c0,3.3-2.7,6-6,6h-83.7c-3.3,0-6-2.7-6-6V72.5c0-3.3,2.7-6,6-6
						h83.7C1715.5,66.5,1718.2,69.2,1718.2,72.5z"/>
				</g>
			</g>
		</g>
		<g id="Union_1" transform="translate(-2616.95 -81.971)">
			
				<image style="overflow:visible;" width="207" height="201" xlink:href="7BAA8F1F.png"  transform="matrix(1 0 0 1 3988.95 9.971)">
			</image>
			<g>
				<g>
					<g>
						<path class="st2" d="M4061.6,159.6c73.2-35.8,10.9,18,6.1-28.8c30.3,41.7,65.9-34.6,33.4-44.7c-37.2,45.3-1.1,49.6-27.1,19.8
							c47.4-15,30.7,40.8,38.9-9.5c-42.8,35.6,21.1-18.9,55.4,8.7c-54.7,16.9,16.6-23.4-67.8,27.1c-19.9,15.5,5.9-58.1,8.6-15
							c-16.6-13.2,34.8,7-25.5-21.5c30.7-19.6-24-10,17-22.3c44,17.4,24.2-5.4-20.1,4.9c38,13.5,54.4,7.1,64.5-13
							c-15.8,50.7-77.2-23.9-25.3-42c-4.4,19.5,10.4,53.4-4.6,14.9c-11.9,30.4-79-4-48.5,22.7c-2.8-15.6,12-33.9-11.8,14.6
							c-14.6-44.8,38.2,32.5,43.4,36c21.9,9.9,0.3-45.4-17.4-9.6c17.7,18.3-56.1-19.9-0.2-15.2c33.3-28.6,9.1,3.4-29.9,17.8
							c-1.1,20.3,39.2-19.6,17.5,4.5c-49.1,22.1-25.9,23.2-54,34.6c-0.2-66,6.2-52.1,72.4-37.5c-64.1,15.6-45-0.2,15,15.2
							c18.5-31.9-12.2-15.1-9.4-21.2c-2.6,21.1-29-3.7,30.3-5.6c-30.5,35.9-77.9,26.5-46.9,54.1c36.6-20,15.9,10.4,57.6-30.1
							c-92,10.1-87.5,45.4-31.6,37.4 M4058.3,164.6c78.7-39-7.3,20.6-12.5-29.2c29.8,45.4,65.9-9,30.5-23.3
							c-40.6,49.3-1.2,29.6-29.6-2.9c51.7-16.3,1.6,44.5,10.6-10.4c-50.1,38.8-12.7-23.2,24.8,3.5c-60.8,18.4,15.9-41.2-76.1,15
							c-21.7,13.6,9.2-51.1,15.4-4.2c-18.1-13.2,66.5,9.9,1.9-21.3c33.5-21.3,3.5-38.4,48.2-51.8c48,15.6,33.4-11.9-11.5-0.7
							c41.4,14.7,76.4,12.1,87.3-9.8c-13.9,55.3-78.2,6.6-21.6-9.8c-4.8,22.5,12.3,87.9-2.8,46c-12.9,33.1-40.5-4.4-7.2,24.7
							c1.5-17,21.3-35.2-4.7,19.8c-15.9-48.8,41.7,22.1,47.4,25.9c23.9,14.1-2.3-47.9-25-8.8c19.3,20-84.1-21.6-23.1-16.6
							c36.3-31.2,40,32.5-2.7,48.2C4107.6,184.5,4123.5,154.6,4058.3,164.6z"/>
					</g>
				</g>
			</g>
		</g>
		<g id="Union_2" transform="translate(-4063.61 291.062)">
			
				<image style="overflow:visible;" width="226" height="222" xlink:href="7BAA8F1A.png"  transform="matrix(1 0 0 1 3985.6101 1.938)">
			</image>
			<g>
				<g>
					<g>
						<path class="st3" d="M4116.1,61.5c-104.8,169.4-103.1,169.1-1.4,0.6c-100.1,167-32.7,99.6-22.5,22.5
							c-10.2,77.1-1.7,68.6-2.8,2.8c1.1,65.8,9.6,74.3-2.8-2.8c12.4,77.1,77,141.7-21.5-21.5c100,164.7,101.8,165-1.4-0.6
							c105.1,165.5,106.8,165.3-1.4,0.6c109.8,163.2,151.3,121.7-13.8,13.8c166.6,106.3,166.9,104.6-0.6,1.4
							c167.4,101.3,167.2,99.5,0.6,1.4c165.1,96.6,100.6,32,21.5,21.5c79,10.5,70.6,2,2.8,2.8c67.7-0.8,76.2-9.3-2.8,2.8
							c79-12.1,144.4-77.5-21.8,21.8c168.5-101.6,168.5-105.4,0,2.8c166.2-110.6,125.1-151.7,13.7,13.7
							c109.9-166.9,108.1-167.1,1.4,0.6c104.8-167.7,103.1-167.5,1.4-0.6c100.1-165.4,34.7-100,21.8-21.8c13-78.2,4.5-69.7,2.8-2.8
							c1.6-66.9-6.8-75.4,2.8,2.8c-9.7-78.2-76.3-144.8,22.2,22.2c-100-168.5-101.8-168.8,1.4,0.6c-105.1-169.4-106.8-169.1,1.4-0.6
							c-109.8-167-151.3-125.5,13.8-13.8c-166.6-110.2-166.9-108.4,0.6-1.4c-167.4-105.1-167.2-103.3-0.6-1.4
							c-165.1-100.4-98.5-33.8-22.2-22.2c-76.3-11.6-67.8-3.1-2.8-2.8c-65-0.3-73.5,8.2,2.8-2.8c-76.3,11-143.7,78.5,22.5-22.5
							c-168.5,103.3-168.5,107.1,0-2.8C3965,188,4006.1,229.1,4117.5,62.1C4007.6,230.6,4009.4,230.8,4116.1,61.5 M4116.1,57.5
							c-110.4,185.4-115,183.6,4.2,1.8c-122.7,178.3-163.8,137.3,13.7,13.7c-184.5,116.5-184.5,105.1,0,8.5
							c-177.5,89.6-110.1,22.2-22.5,22.5c-87.6-0.3-154.2-66.9,22.2,22.2c-183.4-96.1-183.4-107.5,0,8.5
							c-176.4-123-134.9-164.5-13.8,13.8c-117.6-181.8-113-183.6-4.2,1.8c-99.5-185.4-94.9-183.6-4.2-1.8
							c-87.2-178.3-20.6-111.7-22.2-22.2c1.6-89.5,67-154.9-21.8,21.8c92.3-180.2,96.9-182-4.2,1.8c110.4-183.7,115-182-4.2-1.8
							c122.7-176.7,163.8-135.6-13.7-13.7c184.5-114.9,184.5-103.5,0-8.5c177.5-88,112.1-22.6,21.8-21.8
							c90.3-0.8,154.9,63.7-21.5-21.5c183.4,92.3,183.4,103.7,0-8.5c176.4,119.2,134.9,160.7,13.8-13.8c117.6,178,113,179.8,4.2-1.8
							c99.5,181.5,94.9,179.8,4.2,1.8c87.2,174.5,22.6,110,21.5,21.5c1.1,88.4-66.3,155.9,22.5-22.5
							C4019.5,241.1,4014.9,242.8,4116.1,57.5z"/>
					</g>
				</g>
			</g>
		</g>
		<g>
			<image style="overflow:visible;" width="1142" height="187" xlink:href="7BAA8F1B.png"  transform="matrix(1 0 0 1 398 148)">
			</image>
			<g>
				<text transform="matrix(0.8705 0 0 1 407.9573 281.0732)" class="st3 st4 st5">Rutvikraj Vala</text>
			</g>
		</g>
	</g>
</g>
<g id="Group_161_1_" transform="translate(-1562 6)">
	<image style="overflow:visible;" width="79" height="80" xlink:href="7BAA8F16.png"  transform="matrix(1 0 0 1 2929.407 306.28)">
	</image>
	<g>
		<g>
			
				<rect id="Rectangle_11_14_" x="2953.5" y="315.2" transform="matrix(0.7749 -0.6321 0.6321 0.7749 453.1765 1946.9575)" class="st2" width="13" height="44"/>
			
				<rect id="Rectangle_12_14_" x="2938" y="330.7" transform="matrix(0.7749 -0.6321 0.6321 0.7749 453.1312 1946.7733)" class="st2" width="43.6" height="13.1"/>
		</g>
	</g>
</g>
</svg>
